<svg width="78" height="27" viewBox="0 0 78 27" fill="none" xmlns="http://www.w3.org/2000/svg"><path d="M77.9911 7.28503H75.1385V14.6887H73.434V7.28503H70.5991V5.85831H71.0142C73.2044 5.85831 75.3946 5.85831 77.5848 5.85831C77.7262 5.85831 77.8586 5.84987 77.9999 5.84143V7.28503H77.9911Z" fill="#1C1B1B" fill-opacity="0.982"/><path d="M77.991 19.7708C77.6554 20.4124 77.0725 20.6404 76.1629 20.4715C75.9421 20.4293 75.7302 20.3533 75.4917 20.2774C75.5624 20.0832 75.6242 19.9312 75.6772 19.8046C76.0304 19.8637 76.366 19.9397 76.7016 19.9566C76.9577 19.9735 77.2227 19.9059 77.2933 19.6189C77.364 19.3234 77.1344 19.1799 76.9047 19.0702C76.6575 18.952 76.3925 18.8844 76.1452 18.7662C75.7125 18.5721 75.5359 18.2513 75.5888 17.8123C75.633 17.4155 75.8979 17.12 76.3395 17.0103C76.8518 16.8837 77.3375 16.9427 77.8232 17.1791C77.7614 17.348 77.6996 17.4999 77.6466 17.635C77.3463 17.5843 77.0725 17.5253 76.7899 17.5084C76.5691 17.4915 76.3395 17.559 76.2777 17.8038C76.2159 18.0487 76.3837 18.1922 76.5868 18.2935C76.7369 18.3695 76.8959 18.4286 77.0637 18.4792C77.4788 18.6227 77.8232 18.8338 77.991 19.239V19.7624V19.7708Z" fill="#1C1B1B" fill-opacity="0.982"/><path d="M35.8559 5.85809C36.4211 5.85809 36.8803 5.84121 37.3396 5.86653C37.4456 5.86653 37.5869 6.01005 37.6399 6.11979C38.3817 7.59716 39.1147 9.08297 39.8477 10.5603C39.9979 10.8642 40.1303 11.1766 40.307 11.5396C40.5896 10.9149 40.8369 10.3408 41.1106 9.78366C41.7112 8.55956 42.3382 7.33546 42.9388 6.11135C43.0447 5.9003 43.1861 5.83276 43.4157 5.84121C43.8043 5.85809 44.1928 5.84121 44.6786 5.84121C44.917 8.78749 45.1466 11.7169 45.3939 14.7054C44.8375 14.7054 44.3341 14.7138 43.8396 14.6885C43.7778 14.6885 43.6718 14.5028 43.6718 14.4015C43.61 13.1689 43.5746 11.928 43.5128 10.6954C43.4775 10.02 43.4157 9.34467 43.3627 8.66931C43.3627 8.61865 43.3362 8.568 43.3009 8.43293C43.0889 8.85503 42.9123 9.2096 42.7445 9.55572C42.1704 10.7967 41.5964 12.0377 41.0312 13.2787C40.9517 13.456 40.8634 13.5235 40.6514 13.5235C39.6446 13.5235 39.6446 13.5319 39.2472 12.6709C38.6731 11.4214 38.0814 10.172 37.4986 8.92257C37.4279 8.77905 37.3484 8.63554 37.2778 8.49202C37.2424 8.49202 37.2071 8.49202 37.1718 8.50046C37.0658 10.5519 36.951 12.5949 36.845 14.6716H35.1582C35.3878 11.7253 35.6263 8.80438 35.8559 5.83276V5.85809Z" fill="#1C1B1B" fill-opacity="0.982"/><path d="M53.3692 14.7221C53.7843 13.6415 54.1552 12.6031 54.5791 11.5901C55.3475 9.77502 56.1512 7.97685 56.9283 6.17025C57.0255 5.94231 57.1579 5.80724 57.4317 5.85789C57.5289 5.87477 57.6437 5.87477 57.7408 5.85789C58.5092 5.69749 58.8624 6.05206 59.1274 6.71054C60.1695 9.30226 61.2558 11.8771 62.3244 14.4519C62.3509 14.5195 62.3685 14.5955 62.4039 14.7136C61.821 14.7136 61.2646 14.7136 60.7082 14.7052C60.6376 14.7052 60.5404 14.587 60.5051 14.5026C60.2843 13.9623 60.0812 13.422 59.8869 12.8733C59.8251 12.696 59.7367 12.6369 59.5425 12.6369C58.4209 12.6369 57.2904 12.6369 56.1688 12.6369C55.9569 12.6369 55.8685 12.7044 55.7979 12.8901C55.6213 13.422 55.4093 13.9454 55.2327 14.4688C55.1709 14.6461 55.0825 14.7305 54.8706 14.7305C54.3937 14.7136 53.9079 14.7305 53.3516 14.7305L53.3692 14.7221ZM56.3366 11.3115H59.3923C58.8889 10.062 58.3944 8.85483 57.9086 7.65605C57.8733 7.65605 57.8468 7.65605 57.8115 7.6645C57.3257 8.86327 56.84 10.062 56.3366 11.3115Z" fill="#1C1B1B" fill-opacity="0.982"/><path d="M48.6882 11.641V14.697H47.0278V5.95101C47.6195 5.90035 48.2201 5.81593 48.8295 5.79061C49.8804 5.7484 50.9402 5.7484 51.9558 6.10296C53.9252 6.78677 54.4905 9.35317 52.9538 10.7039C52.2826 11.2948 51.4259 11.4806 50.5516 11.5566C49.9511 11.6072 49.3417 11.6156 48.6882 11.641ZM48.7058 10.2058C49.5095 10.2311 50.2867 10.2565 51.0373 10.0201C51.7174 9.80904 52.0176 9.38694 52.0265 8.68624C52.0265 8.01088 51.6997 7.555 51.0373 7.35239C50.2778 7.11601 49.5095 7.14134 48.7147 7.22576V10.2058H48.7058Z" fill="#1C1B1B" fill-opacity="0.982"/><path d="M69.6715 12.9751C69.8304 13.4479 69.9806 13.8615 70.1484 14.368C69.6008 14.52 69.0974 14.6888 68.5764 14.7901C67.7197 14.959 66.8454 14.9674 65.9799 14.7901C64.5492 14.5031 63.5601 13.7011 63.0832 12.3926C62.5356 10.9068 62.5091 9.4041 63.2421 7.95206C63.9928 6.45781 65.3175 5.74867 67.0044 5.65581C67.9405 5.60516 68.8502 5.75712 69.7156 6.13701C69.9629 6.24676 70.0424 6.3565 69.9276 6.60977C69.7775 6.93057 69.6715 7.25981 69.5567 7.56372C69.0268 7.42021 68.5234 7.22604 68.0023 7.15006C65.9799 6.87147 64.6993 7.85075 64.5139 9.79243C64.4432 10.4931 64.5139 11.1938 64.77 11.8607C65.1674 12.8654 66.0417 13.4394 67.1722 13.4647C68.0376 13.4901 68.859 13.355 69.6803 12.9667L69.6715 12.9751Z" fill="#1C1B1B" fill-opacity="0.982"/><path d="M31.8643 5.87537H33.4981V14.6973H31.8643V5.87537Z" fill="#1C1B1B" fill-opacity="0.982"/><path d="M40.466 19.1879V17.0605H41.0842V20.412C40.7575 20.488 40.5455 20.4374 40.3512 20.125C39.9096 19.4243 39.4062 18.7658 38.9205 18.082C38.8852 18.0905 38.8587 18.0989 38.8234 18.1073V20.412H38.1875V17.0521C38.4966 16.9761 38.7439 17.0014 38.947 17.2716C39.4239 17.8963 39.9273 18.5041 40.466 19.171V19.1879Z" fill="#1C1B1B" fill-opacity="0.982"/><path d="M43.9546 20.4041C44.4227 19.3151 44.8642 18.2599 45.3323 17.2215C45.3765 17.1286 45.5531 17.0526 45.6767 17.0442C45.818 17.0442 46.0565 17.0948 46.1006 17.1877C46.5599 18.2261 46.9838 19.2645 47.4165 20.3113C47.4254 20.3366 47.4165 20.3788 47.4165 20.4886C47.1693 20.4295 46.8778 20.4464 46.7365 20.3113C46.5775 20.1593 46.5422 19.8807 46.4451 19.6444C46.0035 19.6444 45.5708 19.6444 45.138 19.6444C45.0585 19.6444 44.979 19.7288 44.9172 19.7879C44.8819 19.8216 44.8731 19.8892 44.8554 19.9398C44.72 20.3056 44.4197 20.4576 43.9546 20.3957V20.4041ZM46.2773 19.1125C46.0918 18.6566 45.9152 18.2261 45.7474 17.804C45.7209 17.804 45.6944 17.804 45.6679 17.804C45.4913 18.2345 45.3235 18.6651 45.138 19.1125H46.2861H46.2773Z" fill="#1C1B1B" fill-opacity="0.982"/><path d="M35.3614 20.4377C35.1583 20.4377 35.0258 20.4208 34.911 20.4377C34.6725 20.4715 34.5666 20.3617 34.4959 20.1591C34.3105 19.6357 34.3016 19.6357 33.7276 19.6357C33.6569 19.6357 33.5863 19.6357 33.5245 19.6357C32.8621 19.6357 32.8533 19.6357 32.606 20.2351C32.4558 20.6065 32.1556 20.3448 31.8995 20.4546C31.8995 20.3786 31.8818 20.3279 31.8995 20.2857C32.3234 19.2642 32.7473 18.2343 33.1889 17.2128C33.2242 17.1284 33.3831 17.0271 33.4891 17.0355C33.6481 17.0355 33.9042 17.0777 33.9484 17.179C34.4341 18.2343 34.8845 19.3064 35.3702 20.4377H35.3614ZM32.9946 19.1038H34.1338C33.9484 18.6395 33.7717 18.209 33.5598 17.694C33.3567 18.209 33.18 18.6395 32.9857 19.1038H32.9946Z" fill="#1C1B1B" fill-opacity="0.982"/><path d="M72.7011 17.2296C72.6393 17.3984 72.5775 17.542 72.5157 17.6939C71.8886 17.4997 71.2793 17.3393 70.8023 17.9303C70.4756 18.344 70.4756 19.1713 70.82 19.5765C71.3057 20.1506 71.9151 19.9733 72.5598 19.7875C72.6128 19.9479 72.6746 20.0999 72.7276 20.2603C71.9769 20.6993 70.8112 20.5727 70.299 20.007C69.7426 19.3823 69.7514 18.1498 70.3254 17.4997C70.8377 16.9172 71.8886 16.7822 72.6923 17.2296H72.7011Z" fill="#1C1B1B" fill-opacity="0.982"/><path d="M56.4687 20.4206H55.8152C55.8152 20.1927 55.7975 19.9647 55.8152 19.7452C55.8593 19.3062 55.718 18.9432 55.4707 18.5887C55.1351 18.1075 54.8613 17.6009 54.5522 17.0944C55.1616 16.934 55.2676 16.9847 55.5237 17.449C55.7092 17.7951 55.9123 18.1328 56.1508 18.5464C56.3892 18.1412 56.6012 17.7951 56.7954 17.4405C57.0604 16.9593 57.0604 16.9593 57.7228 17.0775C57.4313 17.5587 57.184 18.0484 56.8573 18.4958C56.5482 18.9263 56.4069 19.3653 56.4687 19.8719C56.4863 20.0407 56.4687 20.218 56.4687 20.429V20.4206Z" fill="#1C1B1B" fill-opacity="0.982"/><path d="M62.1295 20.4209H61.4583V17.5928H60.3809V17.0525H63.1628V17.5843H62.1295V20.4209Z" fill="#1C1B1B" fill-opacity="0.982"/><path d="M52.5649 19.889V20.4124H50.3306V17.0525H50.9841V19.889H52.5649Z" fill="#1C1B1B" fill-opacity="0.982"/><path d="M66.1484 17.0442H66.7401V20.4126H66.1484V17.0442Z" fill="#1C1B1B" fill-opacity="0.982"/><path d="M13.6094 10.1389L5.6875 25.8834L0 21.7299L7.87771 5.90102L13.5122 10.0545L13.6182 10.1305L13.6094 10.1389ZM16.5591 4.2717L10.8186 0L8.45176 4.7529L14.1834 9.00771L16.5679 4.28014L16.5591 4.2717ZM17.6454 6.42443L11.8166 18.0914L27.36 26.1874L17.6542 6.42443H17.6454Z" fill="#264CD7"/></svg>